<mxfile host="app.diagrams.net" modified="2023-12-22T08:20:23.001Z" agent="Mozilla/5.0 (Windows NT 10.0; Win64; x64) AppleWebKit/537.36 (KHTML, like Gecko) Chrome/120.0.0.0 Safari/537.36" etag="AhXoiHLcopOQKr6ChXp5" version="22.1.11" type="device">
  <diagram name="Страница — 1" id="CIfKrZbcpiphk9vqvNjl">
    <mxGraphModel dx="1034" dy="690" grid="1" gridSize="10" guides="1" tooltips="1" connect="1" arrows="1" fold="1" page="1" pageScale="1" pageWidth="827" pageHeight="1169" math="0" shadow="0">
      <root>
        <mxCell id="0" />
        <mxCell id="1" parent="0" />
        <mxCell id="xmd_j59YF9yBo19W5Fj3-1" value="&lt;font style=&quot;font-size: 14px;&quot;&gt;formula&lt;/font&gt;" style="text;html=1;strokeColor=none;fillColor=none;align=center;verticalAlign=middle;whiteSpace=wrap;rounded=0;" vertex="1" parent="1">
          <mxGeometry x="384" y="90" width="60" height="30" as="geometry" />
        </mxCell>
      </root>
    </mxGraphModel>
  </diagram>
</mxfile>
